<mxfile host="app.diagrams.net" modified="2024-03-08T13:45:45.212Z" agent="Mozilla/5.0 (Windows NT 10.0; Win64; x64) AppleWebKit/537.36 (KHTML, like Gecko) Chrome/121.0.0.0 Safari/537.36 OPR/107.0.0.0" etag="wjlzD44kEw6iWXYDbHKr" version="24.0.2" type="device">
  <diagram id="C5RBs43oDa-KdzZeNtuy" name="Page-1">
    <mxGraphModel dx="952" dy="517" grid="1" gridSize="10" guides="1" tooltips="1" connect="1" arrows="1" fold="1" page="1" pageScale="1" pageWidth="827" pageHeight="1169" math="0" shadow="0">
      <root>
        <mxCell id="WIyWlLk6GJQsqaUBKTNV-0" />
        <mxCell id="WIyWlLk6GJQsqaUBKTNV-1" parent="WIyWlLk6GJQsqaUBKTNV-0" />
        <mxCell id="KPkdWcnwVAzH4WlJgaGy-20" style="edgeStyle=orthogonalEdgeStyle;rounded=0;orthogonalLoop=1;jettySize=auto;html=1;exitX=0.5;exitY=1;exitDx=0;exitDy=0;exitPerimeter=0;entryX=0.5;entryY=0;entryDx=0;entryDy=0;" edge="1" parent="WIyWlLk6GJQsqaUBKTNV-1" source="KPkdWcnwVAzH4WlJgaGy-1" target="KPkdWcnwVAzH4WlJgaGy-19">
          <mxGeometry relative="1" as="geometry" />
        </mxCell>
        <mxCell id="KPkdWcnwVAzH4WlJgaGy-1" value="Začni glavni program" style="strokeWidth=2;html=1;shape=mxgraph.flowchart.start_1;whiteSpace=wrap;" vertex="1" parent="WIyWlLk6GJQsqaUBKTNV-1">
          <mxGeometry x="274" y="10" width="100" height="60" as="geometry" />
        </mxCell>
        <mxCell id="KPkdWcnwVAzH4WlJgaGy-22" style="edgeStyle=orthogonalEdgeStyle;rounded=0;orthogonalLoop=1;jettySize=auto;html=1;exitX=0.5;exitY=1;exitDx=0;exitDy=0;entryX=0.5;entryY=0;entryDx=0;entryDy=0;" edge="1" parent="WIyWlLk6GJQsqaUBKTNV-1" source="KPkdWcnwVAzH4WlJgaGy-19" target="KPkdWcnwVAzH4WlJgaGy-21">
          <mxGeometry relative="1" as="geometry" />
        </mxCell>
        <mxCell id="KPkdWcnwVAzH4WlJgaGy-19" value="Ustvari agente" style="rounded=1;whiteSpace=wrap;html=1;" vertex="1" parent="WIyWlLk6GJQsqaUBKTNV-1">
          <mxGeometry x="264" y="110" width="120" height="60" as="geometry" />
        </mxCell>
        <mxCell id="KPkdWcnwVAzH4WlJgaGy-24" style="edgeStyle=orthogonalEdgeStyle;rounded=0;orthogonalLoop=1;jettySize=auto;html=1;exitX=0.5;exitY=1;exitDx=0;exitDy=0;entryX=0.5;entryY=0;entryDx=0;entryDy=0;" edge="1" parent="WIyWlLk6GJQsqaUBKTNV-1" source="KPkdWcnwVAzH4WlJgaGy-21" target="KPkdWcnwVAzH4WlJgaGy-23">
          <mxGeometry relative="1" as="geometry" />
        </mxCell>
        <mxCell id="KPkdWcnwVAzH4WlJgaGy-21" value="Okuži naključne agente" style="rounded=1;whiteSpace=wrap;html=1;" vertex="1" parent="WIyWlLk6GJQsqaUBKTNV-1">
          <mxGeometry x="264" y="210" width="120" height="60" as="geometry" />
        </mxCell>
        <mxCell id="KPkdWcnwVAzH4WlJgaGy-29" style="edgeStyle=orthogonalEdgeStyle;rounded=0;orthogonalLoop=1;jettySize=auto;html=1;exitX=0.5;exitY=1;exitDx=0;exitDy=0;entryX=0.5;entryY=0;entryDx=0;entryDy=0;" edge="1" parent="WIyWlLk6GJQsqaUBKTNV-1" source="KPkdWcnwVAzH4WlJgaGy-23" target="KPkdWcnwVAzH4WlJgaGy-25">
          <mxGeometry relative="1" as="geometry" />
        </mxCell>
        <mxCell id="KPkdWcnwVAzH4WlJgaGy-30" value="Ne" style="edgeLabel;html=1;align=center;verticalAlign=middle;resizable=0;points=[];" vertex="1" connectable="0" parent="KPkdWcnwVAzH4WlJgaGy-29">
          <mxGeometry x="-0.16" relative="1" as="geometry">
            <mxPoint as="offset" />
          </mxGeometry>
        </mxCell>
        <mxCell id="KPkdWcnwVAzH4WlJgaGy-36" style="edgeStyle=orthogonalEdgeStyle;rounded=0;orthogonalLoop=1;jettySize=auto;html=1;exitX=0;exitY=0.5;exitDx=0;exitDy=0;entryX=1;entryY=0.5;entryDx=0;entryDy=0;" edge="1" parent="WIyWlLk6GJQsqaUBKTNV-1" source="KPkdWcnwVAzH4WlJgaGy-23" target="KPkdWcnwVAzH4WlJgaGy-35">
          <mxGeometry relative="1" as="geometry" />
        </mxCell>
        <mxCell id="KPkdWcnwVAzH4WlJgaGy-37" value="Da" style="edgeLabel;html=1;align=center;verticalAlign=middle;resizable=0;points=[];" vertex="1" connectable="0" parent="KPkdWcnwVAzH4WlJgaGy-36">
          <mxGeometry x="0.0268" y="-2" relative="1" as="geometry">
            <mxPoint as="offset" />
          </mxGeometry>
        </mxCell>
        <mxCell id="KPkdWcnwVAzH4WlJgaGy-23" value="Vsi agenti zdravi?" style="rhombus;whiteSpace=wrap;html=1;" vertex="1" parent="WIyWlLk6GJQsqaUBKTNV-1">
          <mxGeometry x="284" y="320" width="80" height="80" as="geometry" />
        </mxCell>
        <mxCell id="KPkdWcnwVAzH4WlJgaGy-31" style="edgeStyle=orthogonalEdgeStyle;rounded=0;orthogonalLoop=1;jettySize=auto;html=1;exitX=1;exitY=0.5;exitDx=0;exitDy=0;entryX=0;entryY=0.5;entryDx=0;entryDy=0;" edge="1" parent="WIyWlLk6GJQsqaUBKTNV-1" source="KPkdWcnwVAzH4WlJgaGy-25" target="KPkdWcnwVAzH4WlJgaGy-28">
          <mxGeometry relative="1" as="geometry" />
        </mxCell>
        <mxCell id="KPkdWcnwVAzH4WlJgaGy-25" value="Premakni in posodobi agente" style="rounded=1;whiteSpace=wrap;html=1;" vertex="1" parent="WIyWlLk6GJQsqaUBKTNV-1">
          <mxGeometry x="264" y="450" width="120" height="60" as="geometry" />
        </mxCell>
        <mxCell id="KPkdWcnwVAzH4WlJgaGy-28" value="Zabeleži stanje simulacije" style="rounded=1;whiteSpace=wrap;html=1;" vertex="1" parent="WIyWlLk6GJQsqaUBKTNV-1">
          <mxGeometry x="440" y="450" width="120" height="60" as="geometry" />
        </mxCell>
        <mxCell id="KPkdWcnwVAzH4WlJgaGy-34" value="" style="endArrow=classic;html=1;rounded=0;exitX=0.544;exitY=0.01;exitDx=0;exitDy=0;exitPerimeter=0;" edge="1" parent="WIyWlLk6GJQsqaUBKTNV-1" source="KPkdWcnwVAzH4WlJgaGy-28">
          <mxGeometry width="50" height="50" relative="1" as="geometry">
            <mxPoint x="504" y="420" as="sourcePoint" />
            <mxPoint x="324" y="300" as="targetPoint" />
            <Array as="points">
              <mxPoint x="504" y="300" />
            </Array>
          </mxGeometry>
        </mxCell>
        <mxCell id="KPkdWcnwVAzH4WlJgaGy-35" value="Zaključi glavni program" style="rounded=1;whiteSpace=wrap;html=1;" vertex="1" parent="WIyWlLk6GJQsqaUBKTNV-1">
          <mxGeometry x="110" y="330" width="120" height="60" as="geometry" />
        </mxCell>
      </root>
    </mxGraphModel>
  </diagram>
</mxfile>
